<svg version="1.1" id="Layer_1" xmlns="http://www.w3.org/2000/svg" xmlns:xlink="http://www.w3.org/1999/xlink" x="0px" y="0px"
	 width="100%" viewBox="0 0 438 512" enable-background="new 0 0 438 512" xml:space="preserve">
<path fill="#FFFFFF" opacity="1.000000" stroke="none" 
	d="
M207.000000,1.000000 
	C218.687561,1.000000 230.375122,1.000000 242.232635,1.346717 
	C243.058701,2.124111 243.663879,2.802516 244.378372,2.949452 
	C265.545013,7.302301 281.131134,19.595522 291.860596,37.795971 
	C303.419800,57.403954 307.210175,79.399284 308.941071,101.746147 
	C309.932617,114.548096 310.396393,127.392944 310.981445,140.223770 
	C311.522736,152.094727 314.803009,163.071823 321.466461,172.934799 
	C328.592163,183.482025 336.043701,193.812912 343.019104,204.457016 
	C354.663727,222.225937 366.493652,239.899094 377.397247,258.120178 
	C386.885254,273.975525 395.410980,290.280884 397.218811,309.421600 
	C398.438141,322.331665 397.663239,334.846466 395.300873,347.460449 
	C394.642334,350.976685 393.457306,355.746002 395.118683,358.109192 
	C402.028595,367.938171 405.610535,378.413208 405.065674,390.399323 
	C404.988708,392.092590 405.513092,393.957733 406.241455,395.518219 
	C409.548920,402.604126 415.111389,407.101715 422.311371,410.174377 
	C428.468018,412.801849 433.989899,416.623108 437.077209,423.042236 
	C437.322327,423.551849 438.340881,423.689514 439.000000,424.000000 
	C439.000000,428.689240 439.000000,433.378510 438.697510,438.244446 
	C434.760773,442.648895 431.854431,448.016022 427.355469,450.890259 
	C413.961456,459.447357 399.744385,466.706635 386.227051,475.083221 
	C374.871735,482.120056 363.930756,489.849182 353.028137,497.584442 
	C345.835388,502.687561 339.879974,509.729370 330.495178,511.222748 
	C330.242279,511.263000 330.161194,512.383301 330.000000,513.000000 
	C321.645782,513.000000 313.291534,513.000000 304.761841,512.681519 
	C294.881561,508.236237 287.579163,501.416962 282.096283,492.489105 
	C281.643066,491.751160 280.469635,491.180939 279.554260,491.043823 
	C270.097107,489.627045 260.662048,487.769592 251.146255,487.109619 
	C238.610916,486.240204 225.967789,485.567291 213.447083,486.235413 
	C201.496613,486.873108 189.635864,489.286072 177.753021,491.036316 
	C174.451141,491.522644 171.573090,492.454987 169.511047,495.846252 
	C162.250549,507.786682 146.868637,512.087036 134.869080,509.690063 
	C122.660080,507.251251 110.800392,503.008331 98.846573,499.362549 
	C86.140984,495.487457 73.653267,490.794769 60.793892,487.557617 
	C49.073399,484.607147 36.899994,483.500336 25.081387,480.880798 
	C15.900902,478.846008 7.110239,475.513977 2.493077,466.125946 
	C2.379517,465.895020 1.514530,466.033691 1.000000,466.000000 
	C1.000000,461.643097 1.000000,457.286194 1.333823,452.760132 
	C3.778343,446.253754 6.586398,440.044556 7.780426,433.539124 
	C8.746166,428.277466 8.060547,422.632812 7.574731,417.205780 
	C7.028106,411.099487 5.464028,405.070007 5.124853,398.963654 
	C4.820208,393.478973 7.546938,388.639557 12.322104,386.121582 
	C17.913925,383.172882 23.924442,380.687164 30.041214,379.135223 
	C42.114742,376.071838 53.187767,372.038757 59.497169,360.110138 
	C61.368832,356.571594 63.626537,353.022247 66.479095,350.280914 
	C69.073814,347.787354 69.621986,345.021942 68.875572,342.241241 
	C66.447746,333.196564 68.992279,324.837891 72.141457,316.686218 
	C78.548439,300.101654 85.321625,283.657715 92.029358,267.190582 
	C96.380463,256.508850 99.587173,245.081039 105.608337,235.422379 
	C115.679352,219.267288 127.428291,204.139069 138.790253,188.815353 
	C145.245636,180.109085 149.254486,171.090210 149.181381,159.825317 
	C149.035492,137.340546 147.664261,114.963020 146.327682,92.536850 
	C145.544922,79.403313 147.097595,65.919968 149.297745,52.880501 
	C151.358749,40.665638 157.003159,29.330841 166.637955,21.101393 
	C177.807449,11.561085 190.918060,5.483594 205.529083,2.918254 
	C206.113632,2.815625 206.513885,1.663262 207.000000,1.000000 
M113.033379,305.763367 
	C111.305092,316.175751 109.163597,326.508514 110.914650,337.218323 
	C111.998093,343.844849 113.011414,350.736084 118.028198,355.265869 
	C130.513596,366.539276 143.783188,376.942474 156.311172,388.171234 
	C161.887619,393.169403 167.449799,398.741119 171.075714,405.151428 
	C173.295151,409.075226 173.058334,415.457947 171.666351,420.052185 
	C170.291626,424.589478 166.074799,428.265717 163.121078,432.297424 
	C164.676697,434.212433 166.843216,436.676605 168.784195,439.307190 
	C174.450348,446.986420 181.238190,451.440216 191.529037,450.156006 
	C202.438019,448.794739 213.495178,448.542938 224.498077,448.031586 
	C238.606262,447.375824 251.237228,442.417542 262.715851,434.623291 
	C269.554718,429.979523 275.998901,424.667328 282.143188,419.126312 
	C285.012360,416.538818 288.381012,412.848419 288.703461,409.394653 
	C289.809052,397.552765 289.609619,385.592316 290.032349,373.681488 
	C290.171417,369.762878 290.289642,365.769287 291.130829,361.967865 
	C292.298950,356.689026 295.131409,352.307251 300.882355,351.091248 
	C304.827118,350.257141 308.895752,350.008698 313.390961,349.437164 
	C313.930328,344.038910 314.266296,338.502808 315.072357,333.036011 
	C317.109589,319.219971 317.249573,305.226166 313.230988,292.017151 
	C307.136871,271.985870 300.012451,252.202316 292.140564,232.794205 
	C282.273254,208.466400 271.207611,184.624664 260.232056,159.599213 
	C247.108475,166.911057 235.340927,173.732422 223.314377,180.061646 
	C216.826874,183.475830 210.140823,187.081146 203.105530,188.747025 
	C193.602768,190.997208 185.477570,186.100449 178.034958,180.528000 
	C174.953247,178.220657 171.935165,175.828308 168.541565,173.206894 
	C166.664291,186.695190 162.927979,198.483032 155.720428,208.456802 
	C147.565277,219.741867 142.446106,232.152496 137.878983,245.072479 
	C133.827835,256.532837 129.058746,267.743439 124.466499,279.007172 
	C120.911797,287.726044 117.140656,296.356720 113.033379,305.763367 
M84.354874,366.036865 
	C83.053223,367.043243 81.342606,367.794067 80.524750,369.102783 
	C77.808167,373.449860 75.285004,377.931427 72.924850,382.484344 
	C69.627663,388.844910 64.839745,393.237946 57.792999,395.045563 
	C48.839233,397.342377 39.905621,399.717743 30.372763,402.213867 
	C30.955215,406.575104 31.496281,410.421143 31.974833,414.274933 
	C32.356117,417.345428 33.364113,420.544434 32.867153,423.478668 
	C31.421526,432.014038 29.562271,440.495483 27.471582,448.900146 
	C25.965717,454.953735 26.686434,457.225220 32.224285,458.604156 
	C36.449364,459.656219 40.807285,460.163361 45.086697,461.010925 
	C56.146843,463.201477 67.451271,464.606598 78.189613,467.868011 
	C93.926132,472.647491 109.167381,479.034119 124.795059,484.205933 
	C132.017227,486.596008 139.274750,488.148895 145.939301,481.173401 
	C151.821274,475.017029 155.365829,468.018402 151.763336,460.438141 
	C148.292679,453.135345 142.838013,446.792450 138.437225,439.911316 
	C127.349220,422.573944 116.347878,405.181030 105.344246,387.789856 
	C99.980667,379.312775 93.950684,371.495361 84.354874,366.036865 
M373.975037,394.538483 
	C362.788971,404.082611 349.606842,407.515198 335.359680,405.724213 
	C330.958618,405.170929 326.673920,401.883057 322.866333,399.117096 
	C320.687317,397.534180 319.340332,394.600891 318.052887,392.055939 
	C316.873291,389.724121 316.276855,387.097290 315.000061,383.361694 
	C315.000061,396.207825 315.578857,407.741486 314.822296,419.186859 
	C314.183197,428.854980 312.302307,438.481598 310.409485,448.015106 
	C308.435303,457.958374 306.280121,467.734406 309.973114,477.756897 
	C312.733307,485.247864 319.924652,489.532043 327.068481,486.186249 
	C333.972443,482.952759 340.752106,478.800629 346.431915,473.753021 
	C355.963013,465.282806 365.804108,457.601135 377.283386,451.878357 
	C389.449402,445.813202 401.253662,439.022400 413.830414,432.215973 
	C405.233490,425.746979 396.314026,420.653931 389.565186,413.510223 
	C382.554413,406.089325 381.760956,395.546814 381.938721,385.359924 
	C379.283875,388.439240 376.881073,391.226257 373.975037,394.538483 
M227.418442,134.039368 
	C221.375961,131.936813 215.403641,129.584885 209.256317,127.854912 
	C206.809769,127.166405 203.263062,126.825386 201.438583,128.089279 
	C192.313217,134.410797 183.593170,141.317413 174.674042,148.061035 
	C180.006287,156.035202 187.346222,160.269058 194.259384,165.133881 
	C199.706833,168.967270 204.703217,168.524780 209.989243,165.517380 
	C222.359512,158.479523 234.700226,151.389679 247.536896,144.043915 
	C241.858353,138.543472 234.698380,137.043533 227.418442,134.039368 
M260.000000,101.393120 
	C258.987640,96.535988 258.511963,91.484276 256.837769,86.867126 
	C254.296631,79.859070 245.937576,75.501427 239.405167,75.747276 
	C225.242371,76.280289 216.708374,96.836952 222.999969,109.695732 
	C222.999969,108.448837 222.922867,107.621208 223.011627,106.811768 
	C224.150299,96.428261 228.827072,89.290245 239.249329,87.361534 
	C245.952271,86.121109 253.887039,92.895546 256.563446,102.084045 
	C257.271698,104.515495 257.530548,107.077866 257.995728,109.580116 
	C258.283051,109.540428 258.570343,109.500732 258.857666,109.461044 
	C259.238434,107.073212 259.619202,104.685387 260.000000,101.393120 
M191.975525,95.913643 
	C191.316574,94.124130 190.652649,92.336441 189.999603,90.544777 
	C187.948181,84.916672 181.449783,79.519791 177.311890,80.012520 
	C172.301483,80.609138 167.331146,86.049934 166.579575,91.327606 
	C182.213760,83.487404 187.511475,94.465065 192.109528,106.742027 
	C192.430832,106.435440 192.752136,106.128845 193.073441,105.822250 
	C192.715073,102.805962 192.356705,99.789665 191.975525,95.913643 
z"/>
</svg>